<svg width="825" height="180" viewBox="0 0 825 180" fill="none" xmlns="http://www.w3.org/2000/svg">
<path d="M170.26 32.6907C119.94 34.9207 91.3498 80.0507 103.7 127.631C121.31 195.441 222.52 197.02 242.82 130.62C258.36 79.7704 224.68 30.2707 170.26 32.6907ZM211.73 119.251C201.81 157.571 145.77 157.831 135.75 119.611C129.02 93.9406 141.55 66.6207 169.91 64.2107C201.68 61.5107 219.22 90.3308 211.74 119.251H211.73Z" fill="white"/>
<path d="M0 176.9H35.48V109.22H85.66V75.5596H35.48V34.02H86.73V0H0V176.9Z" fill="white"/>
<path d="M492.24 54.6201C491.56 45.0401 489.17 36.3501 485.32 29.0601C481.47 21.7501 476.19 15.8501 469.73 11.8301C465.96 9.51008 461.84 7.72025 457.48 6.51025C453.09 5.29025 448.53 4.66016 443.93 4.66016H380.23V176.91H406.03V115.39H443.57C454.76 115.82 466.1 112.17 473.92 105.62C486.69 94.9101 493.72 75.3601 492.24 54.6201ZM465.09 73.1304H465.081C463.471 78.0004 460.81 82.0805 457.18 85.2705C455.06 87.1205 452.36 88.6604 449.17 89.8604C446.32 90.9404 443.21 91.4805 439.91 91.4805L406.03 91.5205V28.6602L440.271 28.7104C444.431 28.7104 448.23 29.5404 451.5 31.1304C455.84 33.2604 459.391 36.5304 462.081 40.8604C467.561 49.6704 468.72 62.0304 465.1 73.1304H465.09Z" fill="white"/>
<path d="M354.889 35.0898H318.329L299.879 76.6396L281.419 35.0898H245.229L277.449 104.39L243.789 176.9H279.809L299.879 132.5L319.769 176.9H356.319L322.609 104.39L354.889 35.0898Z" fill="white"/>
<path d="M612.329 40.3281V176.808H585.499V151.008L584.859 152.448C584.749 152.698 573.359 177.818 547.949 179.388C535.379 180.178 523.429 175.539 515.999 167.019C504.839 154.209 503.029 135.979 502.689 121.539V40.3281H529.169V124.068C529.359 145.488 543.389 155.568 556.349 155.848C563.679 156.018 570.589 153.238 575.879 148.088C581.679 142.448 585.009 134.478 585.469 125.098L585.499 124.898V40.3384H612.309L612.329 40.3281Z" fill="white"/>
<path d="M714.869 176.81V0.410156H741.699V66.1304L742.339 64.6904C742.449 64.4404 753.839 39.3205 779.249 37.7505C791.819 36.9605 803.769 41.6001 811.199 50.1201C822.359 62.9301 824.169 81.1601 824.509 95.6001V176.81H798.029V93.0703C797.839 71.6503 783.809 61.5705 770.849 61.2905C763.519 61.1205 756.609 63.9003 751.319 69.0503C745.519 74.6903 742.189 82.6605 741.729 92.0405L741.699 92.2402V176.8H714.889L714.869 176.81Z" fill="white"/>
<path d="M703.511 140.279C703.511 141.259 703.471 142.329 703.401 143.529C702.221 162.339 688.041 170.079 679.711 172.999C662.311 179.169 640.481 175.039 628.881 163.389V138.229C637.611 146.159 650.581 155.949 664.301 152.809C673.871 150.609 679.351 143.749 678.281 135.309C677.111 126.329 665.551 117.609 655.331 109.909L655.121 109.749C652.541 107.809 649.621 105.599 647.871 104.019C632.341 90.019 627.211 76.179 631.691 60.459C635.101 48.479 644.131 42.599 651.101 39.769C664.261 34.419 680.961 35.1687 693.711 41.6587V68.229C684.381 61.239 676.381 58.559 670.191 58.979C665.201 59.319 661.401 61.6789 659.031 65.4189C657.221 68.2789 655.541 73.0387 657.851 79.3886C660.501 86.6586 669.691 93.6688 677.091 99.2988L677.811 99.8486C679.651 101.259 681.391 102.599 682.711 103.719C695.881 114.949 703.511 124.529 703.511 140.289V140.279Z" fill="white"/>
</svg>
